<svg version="1.1" id="Layer_1" xmlns="http://www.w3.org/2000/svg" xmlns:xlink="http://www.w3.org/1999/xlink" x="0px" y="0px"
	 width="100%" viewBox="0 0 464 448" enable-background="new 0 0 464 448" xml:space="preserve">
<path fill="#000000" opacity="1.000000" stroke="none" 
	d="
M217.468567,449.000000 
	C211.518112,446.786072 205.594910,446.243866 200.113235,443.659760 
	C180.886353,434.596100 167.352997,420.834991 161.735703,399.940277 
	C161.323181,398.405762 160.929108,396.675903 158.980347,395.558838 
	C152.197571,400.085144 144.378754,402.968353 136.487167,404.874908 
	C125.328407,407.570831 114.078293,407.334656 102.619194,404.220520 
	C80.484383,398.205200 67.336800,382.788177 57.959961,363.420410 
	C52.260860,351.648987 49.926422,339.343292 54.145538,325.974701 
	C56.759739,317.691376 59.018009,309.332855 62.575912,301.381531 
	C63.988110,298.225525 63.469215,296.460388 59.608349,295.319000 
	C41.530212,289.974548 26.169802,280.534698 17.407406,263.206604 
	C13.425338,255.331833 10.962729,246.631302 10.676064,237.563309 
	C10.276644,224.928513 10.636695,212.492477 16.149170,200.653778 
	C24.601742,182.500900 39.140385,171.554001 57.343636,164.695465 
	C57.962406,164.462341 58.649792,164.410110 59.266468,164.172897 
	C62.892647,162.777908 65.490349,161.756607 63.067814,156.437180 
	C57.504150,144.220505 53.490852,131.135742 54.891098,117.658394 
	C57.686989,90.747986 69.111313,68.744919 95.264023,57.521908 
	C104.775284,53.440308 115.235947,50.892471 125.786186,52.287155 
	C136.360718,53.685047 146.803070,56.346836 156.370041,61.222313 
	C160.980453,63.571842 161.733337,60.789314 162.462051,57.841587 
	C165.366730,46.091877 171.053604,35.865280 179.958237,27.801172 
	C192.076584,16.826681 206.014542,9.787362 222.988861,10.670357 
	C225.314087,10.791315 227.654770,10.776340 229.981873,10.675640 
	C255.684372,9.563437 280.265625,27.435266 289.215942,49.722958 
	C290.866516,53.833069 292.435638,57.975880 294.188202,62.478275 
	C300.273651,60.619556 305.805908,57.748463 311.779846,56.036282 
	C325.669861,52.055309 339.205322,50.974094 353.737000,54.090225 
	C376.208191,58.908901 389.510010,73.839035 399.988342,92.166817 
	C407.186615,104.757401 408.457092,118.936646 405.253357,133.028168 
	C403.447144,140.972824 400.611298,148.827271 396.653961,156.032288 
	C394.324951,160.272629 396.329803,161.599915 399.717072,162.269699 
	C409.072998,164.119751 417.757111,167.683624 425.775360,172.689835 
	C436.540466,179.411011 443.888062,188.867584 447.418640,201.223511 
	C450.441559,211.802628 451.803558,222.532791 451.315125,233.523575 
	C450.285461,256.690582 440.399170,274.779694 420.438507,286.910553 
	C413.084778,291.379730 405.469757,295.445770 397.801025,299.356781 
	C394.725647,300.925201 394.430115,302.348816 396.202850,305.073547 
	C402.937653,315.425171 406.653717,326.734985 405.911652,339.176422 
	C404.459534,363.522339 393.417236,382.226776 372.648407,395.198242 
	C363.893311,400.666382 354.724518,404.886383 344.484314,406.708221 
	C336.391785,408.147980 328.764465,406.501312 321.088135,404.167572 
	C313.215546,401.774231 305.444733,399.219269 297.935669,395.793579 
	C295.006195,394.457153 294.601746,397.363190 293.907776,399.433929 
	C291.116699,407.762054 287.816498,415.826355 282.347565,422.867096 
	C272.097168,436.063599 259.252167,445.008026 242.499191,447.759674 
	C241.523666,447.919922 240.585892,448.310089 239.315277,448.796631 
	C231.979050,449.000000 224.958099,449.000000 217.468567,449.000000 
M118.465370,262.055267 
	C121.820702,265.766266 126.742004,268.449158 125.847198,274.764984 
	C123.659904,290.203796 127.603020,305.065643 130.578110,319.976746 
	C131.080566,322.495117 132.028778,325.391418 135.813217,325.775970 
	C146.313446,326.842957 156.557693,329.535553 167.174316,330.263092 
	C172.516022,330.629150 177.888367,332.187042 183.391998,332.183258 
	C186.117432,332.181396 188.027817,333.750336 189.736176,335.674072 
	C200.220505,347.480194 213.053070,356.240295 226.509583,364.240051 
	C228.410934,365.370361 229.403809,365.268982 231.290359,364.195709 
	C244.067154,356.926880 255.963943,348.562286 265.849792,337.574921 
	C269.134521,333.924164 272.953217,331.894592 278.047180,331.992706 
	C289.645844,332.216156 301.334503,333.018646 312.665466,329.657288 
	C316.571014,328.498657 321.746521,328.742615 323.158539,323.666168 
	C323.950378,320.819366 324.906281,318.017120 325.642456,315.163269 
	C328.840881,302.763916 330.688141,290.183411 329.736755,277.341003 
	C329.499695,274.141052 330.828705,272.077423 333.061523,270.039124 
	C344.005737,260.048492 354.124908,249.386108 361.388794,236.246262 
	C363.431366,232.551407 364.207489,229.692902 361.911774,225.714813 
	C353.970459,211.953781 344.667664,199.335464 332.620605,188.898254 
	C330.672302,187.210281 329.727448,185.475479 329.751923,182.934097 
	C329.880066,169.628754 328.112549,156.478836 325.510742,143.498535 
	C324.760864,139.757568 324.813049,134.444244 320.498657,132.774872 
	C317.407928,131.578995 313.827301,130.557236 310.424622,130.406586 
	C299.476410,129.921814 288.688049,127.100945 277.635498,128.221085 
	C275.260193,128.461807 273.214142,127.988602 271.446198,125.889656 
	C261.516754,114.101280 249.535446,104.724792 236.890961,95.982941 
	C232.064423,92.646103 228.761566,93.161644 224.682465,96.379776 
	C213.616730,105.109901 202.483765,113.761826 192.540054,123.791725 
	C189.289825,127.070122 185.763351,128.609879 181.017105,128.311417 
	C164.650284,127.282227 148.760117,130.398254 133.011093,134.441818 
	C131.596176,134.805099 130.361526,135.548279 130.403458,137.049698 
	C130.490189,140.156067 128.628265,142.836212 128.458588,145.725311 
	C127.759117,157.634644 124.681953,169.360504 125.438484,181.349243 
	C125.811264,187.256653 123.436012,191.490280 119.367668,195.392426 
	C110.837265,203.574356 103.678307,212.923981 96.850288,222.544144 
	C94.325584,226.101227 94.304642,229.339569 96.639618,233.068909 
	C102.958008,243.160461 108.966537,253.454651 118.465370,262.055267 
M394.057373,126.424629 
	C394.518494,110.146843 392.757935,94.269157 385.634064,79.345360 
	C384.337677,76.629532 382.982025,74.034332 379.865021,72.945694 
	C370.314117,69.609985 360.674683,66.641914 350.573395,65.454208 
	C338.129608,63.991058 325.674377,64.208023 313.258179,65.555168 
	C308.486816,66.072861 303.298523,64.890747 298.571869,68.319832 
	C318.473297,83.483398 328.799530,102.759041 326.464844,128.569275 
	C334.312347,129.444641 342.703308,128.855087 351.074646,130.379303 
	C362.881042,132.528946 372.675568,137.286407 380.742493,145.879837 
	C383.955658,149.302673 386.830719,153.042892 390.630127,157.553284 
	C391.851562,146.781464 392.950562,137.089325 394.057373,126.424629 
M394.381256,294.162689 
	C394.853027,294.030212 395.407623,294.015015 395.784729,293.748566 
	C417.731903,278.242249 435.228058,258.939209 446.096863,234.122345 
	C446.988312,232.086807 448.377258,229.851288 447.146057,227.034988 
	C444.622070,221.261551 442.047577,215.551712 438.747620,210.161758 
	C432.014832,199.164764 423.158112,190.001266 413.829926,181.281799 
	C407.774017,175.621063 401.257019,170.483322 394.352234,166.038101 
	C396.427277,181.147293 396.311920,195.318970 387.895477,208.469803 
	C383.389160,215.510986 378.048798,221.792587 372.375824,227.848587 
	C370.870178,229.455856 369.684875,230.866409 372.220306,232.659683 
	C386.763580,242.945770 392.640411,258.049377 395.053009,274.833893 
	C395.697205,279.315399 396.142822,284.095032 393.790009,288.534698 
	C392.949768,290.120300 393.006531,292.080109 394.381256,294.162689 
M136.821823,372.515411 
	C134.822113,368.357239 132.399124,364.344147 130.913956,360.009674 
	C128.128067,351.879089 128.711609,343.325623 128.712723,334.879272 
	C128.713699,327.583466 128.724228,327.869049 121.290581,328.160614 
	C104.997032,328.799713 90.248680,324.707336 77.788155,313.547852 
	C73.998253,310.153656 71.881775,305.426849 68.036407,301.817169 
	C64.558807,312.626190 65.447029,323.323181 65.190155,333.899384 
	C64.829750,348.737885 66.357780,363.284760 72.123207,377.205933 
	C73.792305,381.236084 75.860397,384.149689 80.065269,385.924957 
	C88.790253,389.608612 97.827698,391.307159 107.154602,392.829041 
	C122.239059,395.290436 136.962646,393.082916 151.822403,391.867249 
	C152.671295,391.797791 153.449158,391.533539 154.064789,389.868103 
	C147.669846,385.353271 141.492172,380.143707 136.821823,372.515411 
M82.877724,71.377228 
	C80.381073,72.533836 77.361115,72.855354 76.177284,76.001320 
	C70.915138,89.985191 67.247917,104.333153 66.022224,119.266022 
	C65.019531,131.481964 68.115654,143.440750 68.229393,155.584717 
	C68.235939,156.283905 68.611443,156.828812 69.675407,157.049042 
	C70.002762,156.746613 70.524765,156.369339 70.917122,155.886673 
	C84.036194,139.747787 100.006271,129.349106 121.770996,130.821274 
	C125.798706,131.093704 126.960251,129.462982 126.846947,125.604950 
	C126.589691,116.845589 126.087181,108.013489 129.860489,99.687637 
	C135.298599,87.688339 142.410919,77.042084 153.692383,69.687920 
	C154.497971,69.162773 155.435791,68.623779 155.228790,66.590454 
	C131.112625,63.075577 107.074730,61.863350 82.877724,71.377228 
M378.691589,316.207001 
	C372.679688,321.222443 366.340698,325.496002 358.536591,327.473938 
	C349.836456,329.679016 341.150543,331.671661 332.121277,331.209778 
	C328.122772,331.005249 326.705139,332.642883 327.127106,336.522949 
	C327.395782,338.993469 327.266266,341.512390 327.241852,344.008881 
	C327.109741,357.526215 322.162537,369.090027 313.192169,379.106415 
	C309.451843,383.282898 305.065155,386.708099 300.686737,389.865723 
	C301.554901,392.006775 302.995361,391.865662 304.276642,392.038086 
	C315.655548,393.569580 327.069824,394.628265 338.563995,394.009705 
	C352.356415,393.267395 365.822388,390.880524 378.560120,385.304901 
	C380.343384,384.524353 382.314728,383.565613 383.198090,381.669098 
	C386.409424,374.774536 389.016083,367.561127 390.438690,360.161713 
	C392.928589,347.210907 392.178192,333.996704 391.887543,320.883789 
	C391.779572,316.012299 390.554077,311.165527 389.696136,305.343262 
	C385.728912,309.305237 382.492065,312.537781 378.691589,316.207001 
M72.530495,246.088470 
	C76.712410,238.800171 83.991219,234.265259 89.529831,227.348495 
	C70.749283,212.104218 61.225300,192.931793 65.238472,167.926971 
	C63.662098,168.635330 63.188938,168.762589 62.814240,169.028549 
	C43.470062,182.760345 27.372297,199.351974 16.975897,220.987335 
	C14.170298,226.825928 14.160748,232.269791 17.002281,238.390137 
	C23.780743,252.990219 32.611588,266.033325 44.608765,276.704681 
	C50.591030,282.025818 56.697929,287.382294 64.479927,291.601501 
	C60.686626,275.113007 63.159538,260.312805 72.530495,246.088470 
M214.521927,439.925232 
	C218.320724,442.636475 223.224258,443.098480 226.942093,446.013580 
	C227.338318,446.324219 228.417892,446.346069 228.773849,446.035675 
	C232.534531,442.756256 237.592285,442.558472 241.861176,440.390717 
	C256.526978,432.943207 268.018616,421.847870 278.562714,409.587219 
	C282.258118,405.290222 285.694458,400.770477 289.249115,396.352448 
	C289.157867,395.774078 289.066620,395.195709 288.975372,394.617310 
	C263.509796,399.638489 244.751450,388.515106 228.764267,369.733978 
	C212.438797,388.920868 193.869965,401.287140 167.494293,395.421631 
	C180.292343,413.794556 194.910080,428.987793 214.521927,439.925232 
M253.809265,66.878685 
	C264.959991,62.941433 276.240265,60.537350 287.700012,64.769142 
	C288.593048,62.649185 287.680481,61.763428 286.981049,60.885666 
	C273.653656,44.160431 258.838867,29.004702 239.849060,18.708096 
	C234.924728,16.038027 229.590546,12.569308 223.396194,14.544543 
	C217.730240,16.351274 212.457672,19.125996 207.385391,22.258646 
	C192.330093,31.556812 180.760498,44.516365 169.811554,58.103222 
	C168.366074,59.896961 166.625671,61.709919 166.151718,64.238731 
	C178.362305,61.432251 189.883194,62.318787 201.505997,66.073326 
	C213.527161,69.956551 222.089478,78.130325 230.193573,87.800995 
	C237.153488,79.495789 244.201721,72.275589 253.809265,66.878685 
M203.231293,80.368645 
	C193.083313,76.512833 182.579819,73.789833 172.212708,70.632133 
	C163.295212,67.915977 162.579056,68.261581 157.692688,76.133492 
	C151.502960,86.105133 145.874695,96.374306 140.979126,107.036209 
	C137.749786,114.069283 134.801147,121.219406 132.496658,129.430588 
	C133.962509,128.702896 134.710022,128.399460 135.389450,127.984543 
	C149.632172,119.286705 164.791290,118.117546 180.644043,122.389320 
	C184.248978,123.360718 186.659103,122.395981 188.748596,118.791924 
	C194.721893,108.488899 202.145264,99.411186 213.547913,94.611794 
	C217.104324,93.114906 220.824829,92.007874 225.468399,90.370384 
	C218.299896,85.616425 210.784363,83.798851 203.231293,80.368645 
M356.520721,145.040634 
	C347.342438,141.842316 338.696136,137.074341 328.734070,135.364624 
	C340.127808,156.344574 337.738220,165.555008 333.795593,184.372757 
	C349.174530,194.247177 362.765961,205.846909 367.426361,225.121353 
	C377.583221,205.543045 384.772003,185.228745 388.989227,163.517853 
	C379.103119,156.291931 368.330109,150.536057 356.520721,145.040634 
M365.813568,242.015381 
	C363.766815,245.382278 363.193390,249.338760 360.930023,252.723526 
	C355.007263,261.580597 346.722687,267.392700 337.616577,272.367676 
	C336.012543,273.243988 332.961914,273.779083 334.105530,276.276764 
	C335.107819,278.465698 335.355438,280.719635 335.955139,282.903503 
	C338.219421,291.149506 337.968231,299.453491 336.113953,307.798950 
	C334.768555,313.854309 331.743958,319.259674 328.978912,326.188110 
	C334.537262,324.425171 338.997650,323.133881 343.373077,321.600189 
	C358.037811,316.459961 372.169861,310.195374 385.271423,301.726349 
	C387.474823,300.302032 388.357605,298.503540 387.472656,296.304230 
	C386.270660,293.316864 386.274872,290.105804 385.391663,287.151367 
	C381.548645,274.296295 378.549194,261.147888 373.307312,248.764191 
	C371.614990,244.766113 370.863281,240.081940 367.462982,236.719116 
	C365.776733,238.277023 366.587311,239.947601 365.813568,242.015381 
M76.021477,269.303986 
	C73.236549,275.322357 72.311928,281.908295 70.268532,288.151764 
	C68.307312,294.144104 71.498322,297.136230 76.318184,299.832214 
	C88.241455,306.501465 100.247299,312.944794 113.050018,317.809937 
	C116.705734,319.199127 120.217834,320.988983 125.320740,321.490692 
	C116.169884,304.680634 116.508041,288.343292 122.175117,271.323792 
	C107.086014,263.019531 96.432701,250.839432 91.716339,232.443619 
	C84.447792,244.979996 80.212357,256.709930 76.021477,269.303986 
M136.602142,339.935516 
	C138.528595,344.466125 140.420242,349.011871 142.388245,353.524353 
	C147.478653,365.196442 153.703537,376.246887 160.755722,386.839020 
	C161.869324,388.511658 162.703384,389.938477 165.465149,389.114868 
	C176.020660,385.967163 186.862839,383.809631 197.153519,379.730164 
	C205.453094,376.440094 213.909012,373.518280 223.000244,368.541687 
	C203.878815,364.027679 192.650833,351.823029 184.883621,335.917358 
	C167.292511,341.623962 150.691864,341.165710 134.985611,331.403259 
	C133.709015,334.922485 136.887665,336.622131 136.602142,339.935516 
M282.217010,337.387909 
	C280.907196,337.192108 279.352814,337.381622 278.330688,336.732697 
	C274.279694,334.160889 272.689392,335.653046 270.420013,339.579132 
	C264.059021,350.584015 256.257538,360.457825 243.926941,365.521973 
	C241.330902,366.588135 238.360245,366.927490 236.044662,369.389709 
	C254.686020,378.248108 273.649475,385.017395 293.491882,389.227081 
	C304.715973,372.940125 318.736847,343.545685 319.725037,334.053192 
	C315.615997,336.089264 311.290527,337.061462 306.959808,338.096619 
	C298.907013,340.021423 290.953949,340.394073 282.217010,337.387909 
M259.234375,78.759743 
	C251.467300,82.196342 243.700226,85.632942 235.951218,89.061554 
	C236.951477,92.833466 239.976181,91.345505 241.924133,92.098976 
	C256.354370,97.680603 266.508972,107.758049 273.274048,121.471970 
	C273.965881,122.874382 274.861938,124.728989 276.408783,123.885910 
	C278.744873,122.612656 281.235138,122.735191 283.618164,122.149040 
	C293.590942,119.696007 303.573425,119.411758 313.336700,123.101349 
	C315.369659,123.869606 317.113800,125.402435 320.011017,125.698196 
	C318.476196,121.904648 316.969513,118.636543 315.814819,115.248474 
	C310.502106,99.660324 302.454712,85.427315 294.216431,71.284271 
	C292.943848,69.099594 291.735901,68.483307 288.675995,69.246483 
	C278.875702,71.690796 269.470917,75.205902 259.234375,78.759743 
M105.523170,144.274063 
	C93.932770,148.893951 83.367516,155.406052 72.860497,162.017395 
	C71.087006,163.133331 69.916077,164.534088 70.621010,166.989426 
	C73.618782,177.430817 76.449944,187.948608 80.544647,198.005951 
	C83.787766,205.971619 86.257690,214.348129 91.174591,221.876862 
	C94.279068,217.194229 94.543396,211.875473 97.305878,207.428619 
	C102.408951,199.213974 109.867554,193.827118 117.777397,188.906250 
	C120.441986,187.248566 120.893295,185.726364 119.896973,182.796341 
	C116.326981,172.297516 115.073669,161.726288 118.365463,150.725098 
	C119.798233,145.936768 122.430122,141.819275 124.433319,136.855331 
	C117.848717,138.789597 111.984352,141.235321 105.523170,144.274063 
z"/>
</svg>